PathFileType	4	(x/y/z)	S06_P20_T30
DataRate	CameraRate	NumFrames	NumMarkers	Units	OrigDataRate	OrigDataStartFrame	OrigNumFrames
240	240	9	51	mm	240	87	347
Frame#	Time	Sternum			R.Acromium			L.Acromium			Top.Head			R.ASIS			L.ASIS			R.PSIS			L.PSIS			R.Great.Tro			L.Great.Tro			R.Iliac.Crest			L.Iliac.Crest			V.Sacral			R.Thigh.Upper.Post			R.Thigh.Lower.Ant			R.Thigh.Lower.Post			R.Thigh.Upper.Ant			R.Knee.Lat			R.Knee.Med			R.Shank.Upper.Post			R.Shank.Lower.Ant			R.Shank.Lower.Post			R.Shank.Upper.Ant			R.Ankle.Lat			R.Ankle.Med			R.Heel.Upper			R.Heel.Med			R.Heel.Lat			R.Toe.Lat			R.Toe.Med			R.Toe.Tip			L.Thigh.Upper.Post			L.Thigh.Lower.Ant			L.Thigh.Lower.Post			L.Thigh.Upper.Ant			L.Knee.Lat			L.Knee.Med			L.Shank.Upper.Post			L.Shank.Lower.Ant			L.Shank.Lower.Post			L.Shank.Upper.Ant			L.Ankle.Lat			L.Ankle.Med			L.Heel.Upper			L.Heel.Med			L.Heel.Lat			L.Toe.Lat			L.Toe.Med			L.Toe.Tip			Cervical.Spine			Back			
		X1	Y1	Z1	X2	Y2	Z2	X3	Y3	Z3	X4	Y4	Z4	X5	Y5	Z5	X6	Y6	Z6	X7	Y7	Z7	X8	Y8	Z8	X9	Y9	Z9	X10	Y10	Z10	X11	Y11	Z11	X12	Y12	Z12	X13	Y13	Z13	X14	Y14	Z14	X15	Y15	Z15	X16	Y16	Z16	X17	Y17	Z17	X18	Y18	Z18	X19	Y19	Z19	X20	Y20	Z20	X21	Y21	Z21	X22	Y22	Z22	X23	Y23	Z23	X24	Y24	Z24	X25	Y25	Z25	X26	Y26	Z26	X27	Y27	Z27	X28	Y28	Z28	X29	Y29	Z29	X30	Y30	Z30	X31	Y31	Z31	X32	Y32	Z32	X33	Y33	Z33	X34	Y34	Z34	X35	Y35	Z35	X36	Y36	Z36	X37	Y37	Z37	X38	Y38	Z38	X39	Y39	Z39	X40	Y40	Z40	X41	Y41	Z41	X42	Y42	Z42	X43	Y43	Z43	X44	Y44	Z44	X45	Y45	Z45	X46	Y46	Z46	X47	Y47	Z47	X48	Y48	Z48	X49	Y49	Z49	X50	Y50	Z50	X51	Y51	Z51	

87	0.35833	-809.82	1282.7	288.56	-919.32	1496.4	458.41	-925.33	1503	107.99	-870.19	1814.9	283.21	-878.08	1055.7	412.93	-872.82	1046.9	159.31	NaN	NaN	NaN	-1077.2	1090.1	237.9	-927.7	991.73	466.28	-974.07	985.79	106.28	-962.8	1134	443.48	-939.61	1125.7	123.09	-1089.8	1053.2	281.15	-847.57	756.72	461.55	-763.21	699.68	426.97	-823.99	669.84	443.64	-780.97	788.39	438.58	-767.61	572.9	432.66	-760.84	576.57	304.16	-799.11	347.14	431.34	-733.68	286.82	418.11	-798.28	270.42	417.56	-736.53	362.15	429.74	-754.4	135.52	398.17	-730.05	143.22	313.3	-809.47	87.907	341.4	-791	60.06	312.65	-800.71	57.687	376.55	-632.96	73.458	439.72	-592.88	88.965	325.65	-538.34	111.76	379.68	-938.72	717.95	133.49	-899.89	636.52	199.02	-964.27	633.89	152.93	-874.85	725.7	174	-992.4	539.97	171.88	-971.94	547.23	292.42	-1078.2	321.92	182.96	-1024.9	250.83	191.17	-1096.9	252.17	201.76	-1011.7	319.14	178.4	-1076.5	108.49	206.87	-1075	111.27	297.65	-1159.3	74.749	245.82	-1156.7	46.253	277.15	-1151.3	49.765	215.56	-971.66	44.608	185.27	-957.9	42.833	306.59	-882.95	56.486	256.33	-974.13	1554.3	284.54	-1050.7	1289.1	279.28
88	0.3625	-804.12	1282.2	288.54	-914	1495.8	458.44	-919.78	1502.4	107.99	-864.95	1814.4	283.41	-872.38	1055.1	412.96	-867.11	1046.1	159.29	NaN	NaN	NaN	-1071.9	1089.6	238.11	-921.77	991.16	466.4	-968.72	985.17	106.43	-957	1133.5	443.59	-934.04	1124.9	123.14	-1084	1052.6	281.44	-843.85	755.4	461.64	-759.66	697.8	426.93	-820.68	668.38	443.55	-776.79	786.61	438.62	-764.17	571.46	432.29	-757.58	575.03	303.69	-790.48	345	430.79	-723.49	286.24	417.78	-787.72	268.29	416.92	-728.28	361.52	429.44	-740.07	134.01	397.62	-715.46	142.82	312.91	-793.75	85.036	340.67	-774.38	57.875	311.76	-784.14	54.851	375.65	-616.87	75.034	439.02	-577.16	92.476	325.16	-523.33	116.57	379.41	-934.98	717.54	133.68	-896.76	635.8	199.09	-961.18	633.64	153.05	-871.09	724.82	174.06	-990.03	539.78	171.95	-969.47	546.89	292.59	-1076.9	322.07	183.03	-1024	250.73	191.23	-1095.9	252.42	201.84	-1010.5	318.97	178.43	-1076.5	108.55	207.03	-1074.7	111.33	297.74	-1159.2	74.868	245.93	-1156.6	46.311	277.23	-1151.2	49.914	215.64	-971.6	44.586	185.27	-957.8	42.653	306.65	-882.81	56.11	256.35	-968.73	1553.7	284.53	-1045.2	1288.4	279.24
89	0.36667	-798.41	1281.7	288.52	-908.66	1495.2	458.48	-914.23	1501.9	107.99	-859.71	1813.9	283.62	-866.66	1054.5	413	-861.37	1045.4	159.3	NaN	NaN	NaN	-1066.5	1089	238.33	-915.89	990.53	466.52	-963.34	984.52	106.61	-951.18	1133	443.72	-928.43	1124.2	123.21	-1078.3	1052	281.74	-840.12	754.02	461.76	-756.13	695.88	426.9	-817.4	666.88	443.45	-772.65	784.8	438.68	-760.75	570.01	431.9	-754.32	573.49	303.2	-782.02	342.98	430.23	-713.55	285.74	417.44	-777.38	266.32	416.27	-720.2	360.93	429.13	-726.08	132.71	397.1	-701.28	142.6	312.53	-778.39	82.42	339.97	-758.18	55.951	310.9	-767.94	52.283	374.79	-601.21	76.759	438.29	-561.95	96.109	324.64	-508.82	121.47	379.09	-931.15	717.11	133.88	-893.54	635.07	199.15	-958.01	633.37	153.18	-867.27	723.93	174.1	-987.57	539.57	172.02	-966.88	546.53	292.75	-1075.5	322.24	183.09	-1023	250.63	191.28	-1094.9	252.68	201.91	-1009.2	318.8	178.44	-1076.5	108.61	207.18	-1074.5	111.4	297.84	-1159.1	74.99	246.04	-1156.6	46.376	277.31	-1151.2	50.065	215.73	-971.54	44.561	185.28	-957.69	42.475	306.7	-882.67	55.723	256.36	-963.32	1553.1	284.53	-1039.6	1287.7	279.22
90	0.37083	-792.69	1281.1	288.51	-903.31	1494.5	458.52	-908.68	1501.2	107.99	-854.47	1813.3	283.82	-860.94	1053.9	413.07	-855.61	1044.6	159.33	NaN	NaN	NaN	-1061.2	1088.4	238.55	-910.04	989.86	466.63	-957.92	983.84	106.79	-945.34	1132.4	443.87	-922.79	1123.4	123.29	-1072.5	1051.4	282.06	-836.35	752.59	461.9	-752.61	693.96	426.87	-814.11	665.36	443.34	-768.53	782.97	438.78	-757.34	568.56	431.5	-751.04	571.97	302.68	-773.74	341.07	429.66	-703.88	285.31	417.09	-767.29	264.48	415.62	-712.32	360.4	428.82	-712.46	131.59	396.59	-687.55	142.55	312.16	-763.44	80.05	339.32	-742.43	54.273	310.08	-752.14	49.974	373.97	-586.01	78.61	437.55	-547.3	99.817	324.09	-494.84	126.38	378.71	-927.22	716.67	134.08	-890.23	634.31	199.19	-954.76	633.08	153.31	-863.39	723.03	174.12	-985.02	539.34	172.09	-964.19	546.16	292.9	-1074.1	322.42	183.15	-1021.9	250.53	191.32	-1093.8	252.98	201.97	-1007.8	318.63	178.46	-1076.4	108.69	207.33	-1074.2	111.5	297.93	-1159	75.118	246.16	-1156.5	46.448	277.4	-1151.1	50.22	215.83	-971.48	44.533	185.29	-957.57	42.3	306.76	-882.52	55.326	256.38	-957.91	1552.5	284.53	-1034	1287	279.22
91	0.375	-786.97	1280.6	288.5	-897.94	1493.9	458.57	-903.14	1500.6	107.99	-849.22	1812.7	284.03	-855.2	1053.2	413.16	-849.84	1043.8	159.38	NaN	NaN	NaN	-1055.8	1087.8	238.78	-904.25	989.13	466.75	-952.47	983.15	107	-939.5	1131.8	444.03	-917.11	1122.6	123.39	-1066.8	1050.7	282.38	-832.53	751.13	462.05	-749.07	692.05	426.85	-810.81	663.83	443.19	-764.41	781.13	438.91	-753.92	567.12	431.07	-747.73	570.47	302.13	-765.64	339.27	429.08	-694.47	284.96	416.72	-757.45	262.79	414.96	-704.62	359.91	428.49	-699.25	130.65	396.11	-674.3	142.63	311.79	-748.92	77.913	338.71	-727.18	52.82	309.3	-736.8	47.914	373.19	-571.31	80.562	436.79	-533.23	103.55	323.5	-481.41	131.28	378.28	-923.21	716.21	134.29	-886.84	633.55	199.23	-951.43	632.77	153.44	-859.44	722.11	174.13	-982.37	539.1	172.16	-961.37	545.77	293.06	-1072.6	322.61	183.22	-1020.9	250.44	191.36	-1092.6	253.3	202.01	-1006.4	318.47	178.48	-1076.4	108.77	207.48	-1073.9	111.62	298.01	-1159	75.252	246.28	-1156.5	46.53	277.5	-1151	50.38	215.92	-971.42	44.501	185.32	-957.46	42.129	306.82	-882.36	54.92	256.4	-952.49	1551.9	284.54	-1028.4	1286.3	279.24
92	0.37917	-781.25	1280	288.5	-892.55	1493.2	458.63	-897.59	1500	108	-843.97	1812.1	284.24	-849.47	1052.5	413.26	-844.05	1042.9	159.45	NaN	NaN	NaN	-1050.5	1087.2	239.02	-898.5	988.37	466.86	-946.99	982.43	107.21	-933.65	1131.2	444.22	-911.4	1121.7	123.51	-1061	1050	282.71	-828.63	749.64	462.21	-745.5	690.16	426.81	-807.46	662.3	443.02	-760.29	779.31	439.06	-750.47	565.69	430.63	-744.37	569.02	301.55	-757.72	337.58	428.5	-685.33	284.66	416.34	-747.87	261.23	414.3	-697.11	359.46	428.15	-686.48	129.86	395.64	-661.55	142.82	311.41	-734.9	75.996	338.14	-712.47	51.571	308.57	-721.95	46.088	372.46	-557.15	82.585	436.02	-519.75	107.27	322.88	-468.54	136.1	377.78	-919.1	715.74	134.49	-883.35	632.77	199.25	-948.01	632.45	153.58	-855.42	721.17	174.12	-979.61	538.85	172.24	-958.44	545.36	293.21	-1071.1	322.82	183.29	-1019.7	250.35	191.4	-1091.4	253.65	202.05	-1004.9	318.3	178.49	-1076.4	108.88	207.63	-1073.6	111.76	298.1	-1158.9	75.395	246.41	-1156.4	46.624	277.6	-1151	50.546	216.03	-971.37	44.468	185.35	-957.34	41.962	306.88	-882.2	54.507	256.42	-947.05	1551.2	284.54	-1022.8	1285.5	279.28
93	0.38333	-775.53	1279.3	288.51	-887.15	1492.5	458.69	-892.03	1499.3	108.01	-838.72	1811.5	284.45	-843.72	1051.8	413.39	-838.26	1042.1	159.54	NaN	NaN	NaN	-1045.1	1086.5	239.26	-892.81	987.56	466.98	-941.47	981.7	107.44	-927.8	1130.6	444.41	-905.67	1120.9	123.65	-1055.2	1049.3	283.05	-824.65	748.13	462.35	-741.88	688.3	426.77	-804.06	660.79	442.81	-756.14	777.52	439.24	-746.97	564.3	430.16	-740.94	567.62	300.95	-749.98	336	427.92	-676.47	284.41	415.93	-738.58	259.79	413.64	-689.77	359.04	427.79	-674.17	129.21	395.19	-649.33	143.09	311.03	-721.4	74.281	337.6	-698.35	50.502	307.86	-707.65	44.479	371.76	-543.54	84.648	435.24	-506.9	110.91	322.21	-456.25	140.8	377.21	-914.91	715.26	134.71	-879.76	631.99	199.26	-944.5	632.1	153.72	-851.34	720.23	174.1	-976.75	538.58	172.32	-955.39	544.94	293.35	-1069.5	323.04	183.38	-1018.6	250.26	191.43	-1090.1	254.03	202.09	-1003.3	318.13	178.51	-1076.4	109	207.77	-1073.2	111.92	298.19	-1158.8	75.549	246.55	-1156.3	46.732	277.7	-1150.9	50.722	216.14	-971.32	44.433	185.39	-957.22	41.801	306.94	-882.04	54.086	256.45	-941.61	1550.5	284.56	-1017.1	1284.7	279.33
94	0.3875	-769.81	1278.7	288.53	-881.74	1491.8	458.75	-886.47	1498.6	108.02	-833.47	1810.9	284.66	-837.97	1051	413.53	-832.46	1041.2	159.65	NaN	NaN	NaN	-1039.7	1085.8	239.5	-887.18	986.72	467.1	-935.92	980.96	107.67	-921.95	1129.9	444.62	-899.9	1120	123.79	-1049.4	1048.6	283.38	-820.59	746.63	462.48	-738.19	686.5	426.71	-800.58	659.3	442.56	-751.96	775.77	439.44	-743.39	562.94	429.68	-737.42	566.28	300.34	-742.43	334.53	427.34	-667.89	284.2	415.5	-729.58	258.48	412.99	-682.62	358.65	427.4	-662.35	128.68	394.74	-637.66	143.41	310.64	-708.46	72.751	337.09	-684.85	49.59	307.19	-693.93	43.069	371.1	-530.52	86.714	434.44	-494.69	114.43	321.5	-444.56	145.32	376.56	-910.64	714.76	134.92	-876.07	631.19	199.27	-940.9	631.74	153.87	-847.17	719.28	174.08	-973.77	538.29	172.41	-952.21	544.5	293.49	-1067.8	323.27	183.48	-1017.4	250.18	191.47	-1088.8	254.45	202.11	-1001.7	317.97	178.54	-1076.3	109.15	207.91	-1072.9	112.11	298.28	-1158.7	75.719	246.7	-1156.3	46.859	277.82	-1150.9	50.911	216.27	-971.27	44.397	185.43	-957.09	41.647	307	-881.87	53.66	256.48	-936.17	1549.8	284.58	-1011.5	1283.9	279.4
95	0.39167	-764.1	1278	288.57	-876.31	1491.1	458.82	-880.89	1497.9	108.04	-828.21	1810.3	284.86	-832.23	1050.2	413.7	-826.65	1040.4	159.79	NaN	NaN	NaN	-1034.3	1085.1	239.75	-881.62	985.85	467.22	-930.33	980.2	107.91	-916.1	1129.2	444.84	-894.12	1119.1	123.96	-1043.7	1047.8	283.71	-816.44	745.14	462.59	-734.41	684.77	426.64	-797	657.85	442.26	-747.73	774.07	439.65	-739.71	561.63	429.18	-733.8	565	299.71	-735.07	333.15	426.75	-659.6	284	415.04	-720.87	257.27	412.34	-675.63	358.27	426.98	-651.04	128.25	394.29	-626.56	143.76	310.22	-696.12	71.386	336.6	-672	48.809	306.55	-680.84	41.836	370.47	-518.11	88.748	433.62	-483.14	117.79	320.72	-433.47	149.6	375.83	-906.3	714.25	135.14	-872.27	630.38	199.27	-937.19	631.35	154.02	-842.93	718.33	174.04	-970.68	537.99	172.51	-948.91	544.04	293.63	-1066	323.53	183.59	-1016.1	250.11	191.51	-1087.4	254.9	202.13	-999.98	317.8	178.57	-1076.3	109.33	208.04	-1072.5	112.34	298.37	-1158.6	75.908	246.85	-1156.2	47.009	277.95	-1150.8	51.116	216.4	-971.22	44.361	185.49	-956.96	41.501	307.05	-881.7	53.228	256.51	-930.71	1549.1	284.61	-1005.8	1283	279.49
